<?xml version="1.0" encoding="utf-8"?>
<!-- Generator: Adobe Illustrator 27.5.0, SVG Export Plug-In . SVG Version: 6.00 Build 0)  -->
<svg version="1.1" xmlns="http://www.w3.org/2000/svg" xmlns:xlink="http://www.w3.org/1999/xlink" x="0px" y="0px"
	 viewBox="0 0 750 500" style="enable-background:new 0 0 750 500;" xml:space="preserve">
<g id="BACKGROUND">
	<rect style="fill:#F5F5F5;" width="750" height="500"/>
</g>
<g id="OBJECTS">
	<g>
		<path style="fill:#FFFFFF;" d="M104.679,389.645c0,0-21.33-3.777-29.554-27.393c-8.224-23.615,16.581-47.361,47.197-28.892
			c30.615,18.468,73.267-24.185,117.015-1.319s28.453,81.785-39.018,64.638C132.848,379.531,142.02,398.439,104.679,389.645z"/>
		<path style="fill:#FFFFFF;" d="M495.102,125.521c0,0,20.949,6.051,26.658,30.416c5.709,24.365-21.661,45.305-50.336,23.648
			c-28.675-21.657-75.931,16.163-117.282-11.279c-41.351-27.442-19.743-84.378,45.968-60.069
			C465.822,132.546,458.66,112.759,495.102,125.521z"/>
		<path style="fill:#FFFFFF;" d="M663.901,201.103c0,0,22.238,3.911,30.812,28.364c8.574,24.453-17.287,49.041-49.206,29.917
			c-31.919-19.124-76.386,25.043-121.996,1.366c-45.61-23.677-29.664-84.686,40.679-66.931
			C634.533,211.575,624.97,191.996,663.901,201.103z"/>
		<path style="fill:#FFFFFF;" d="M316.11,194.944c0,0,10.353,1.821,14.344,13.205c3.992,11.384-8.048,22.831-22.908,13.928
			c-14.86-8.903-35.561,11.659-56.795,0.636c-21.233-11.023-13.81-39.425,18.938-31.159S297.986,190.705,316.11,194.944z"/>
	</g>
	<g>
		<g>
			<path style="fill:#9FCCBF;" d="M305.026,371.069c-0.897-3.184-2.049-6.528-3.5-10.042c-5.433-13.154-13.967-29.028-23.818-45.124
				l-4.873,1.074l2.337-5.177c-3.81-6.103-7.787-12.208-11.835-18.178l-12.118,5.005l6.754-12.78
				c-9.752-13.89-19.661-26.68-28.42-36.537l-5.907,2.44l2.386-6.31c-10.176-10.903-18.408-17.156-22.382-15.515
				c-5.583,2.306-6.126,21.585-3.425,46.936l3.305,1.207l-3.036,1.254c0.913,8.085,2.142,16.734,3.629,25.611l7.094,2.006
				l-6.302,2.603c2.196,12.476,4.878,25.28,7.893,37.496l5.605,1.688l-4.695,1.939c1.634,6.414,3.358,12.637,5.15,18.531
				l7.863-0.335l-6.577,4.471c2.149,6.76,4.384,13.02,6.669,18.55c0.403,0.975,0.813,1.921,1.229,2.846l12.273-1.291l-9.658,6.631
				c6.447,12.107,14.097,19.236,21.602,23.297c21.19,11.466,46.524,1.002,53.446-22.076c1.942-6.475,2.593-14.378,0.803-23.91
				l-10.226-3.617L305.026,371.069z"/>
		</g>
		<g>
			<path style="fill:#9FCCBF;" d="M613.693,418.679c2.099-1.959,4.22-4.178,6.353-6.696c7.985-9.426,16.834-22.326,25.331-36.33
				l-2.768-3.331l4.924-0.258c3.192-5.368,6.318-10.865,9.313-16.363l-8.684-7.356l12.546,0.125
				c6.834-13.05,12.757-25.784,16.875-36.463l-4.233-3.586l5.817-0.671c4.361-12.188,5.909-21.027,3.061-23.439
				c-4-3.389-19.088,3.864-37.569,16.036l0.384,3.03l-2.175-1.843c-5.873,3.922-12.056,8.312-18.312,12.991l1.275,6.271
				l-4.516-3.826c-8.75,6.659-17.56,13.823-25.783,21.01l0.929,4.995l-3.364-2.85c-4.298,3.813-8.412,7.619-12.246,11.347
				l3.387,5.932l-6.066-3.294c-4.359,4.348-8.299,8.563-11.656,12.526c-0.592,0.698-1.158,1.392-1.706,2.081l5.88,8.954
				l-8.959-4.811c-6.774,9.791-9.229,18.53-9.375,25.935c-0.412,20.908,17.742,36.287,38.297,32.443
				c5.768-1.079,12.123-3.721,18.763-8.896l-1.279-9.328L613.693,418.679z"/>
		</g>
		<g>
			<path style="fill:#79B2A2;" d="M251.176,387.145c-1.427-1.843-3.063-3.723-4.94-5.635c-7.025-7.157-16.794-15.272-27.483-23.184
				l-2.899,1.99l0.158-4c-4.102-2.98-8.313-5.917-12.535-8.748l-6.594,6.472l1.035-10.133c-10.041-6.497-19.894-12.233-28.22-16.358
				l-3.214,3.155l-0.109-4.753c-9.528-4.434-16.559-6.343-18.721-4.221c-3.038,2.982,1.702,15.719,10.165,31.566l2.478-0.085
				l-1.652,1.621c2.733,5.04,5.821,10.366,9.138,15.771l5.164-0.564l-3.429,3.366c4.732,7.57,9.866,15.225,15.064,22.409
				l4.108-0.379l-2.555,2.508c2.763,3.758,5.533,7.368,8.261,10.745l5.048-2.296l-3.115,4.659c3.19,3.848,6.305,7.347,9.258,10.356
				c0.521,0.53,1.039,1.04,1.555,1.534l7.677-4.086l-4.557,6.884c7.411,6.205,14.292,8.841,20.268,9.511
				c16.872,1.891,30.657-11.64,29.08-28.544c-0.442-4.743-2.105-10.078-5.794-15.831l-7.636,0.339L251.176,387.145z"/>
		</g>
		<g>
			<path style="fill:#79B2A2;" d="M604.906,430.098c2.191-0.797,4.48-1.781,6.874-2.985c8.96-4.506,19.669-11.332,30.465-19.096
				l-1.01-3.368l3.761,1.372c4.09-2.997,8.172-6.111,12.156-9.267l-4.151-8.254l9.334,4.078c9.251-7.579,17.721-15.211,24.19-21.882
				l-2.023-4.023l4.559,1.347c7.13-7.721,11.094-13.833,9.733-16.539c-1.912-3.803-15.488-3.177-33.162,0.046l-0.676,2.386
				l-1.04-2.068c-5.633,1.065-11.648,2.38-17.808,3.889l-1.039,5.09l-2.159-4.293c-8.653,2.196-17.51,4.749-25.937,7.507
				l-0.893,4.027l-1.608-3.198c-4.422,1.484-8.705,3.021-12.753,4.588l0.646,5.508l-3.486-4.388
				c-4.638,1.864-8.92,3.762-12.687,5.656c-0.664,0.334-1.307,0.672-1.936,1.013l1.548,8.557l-5.165-6.44
				c-8.171,5.163-12.781,10.912-15.243,16.399c-6.95,15.49,1.728,32.746,18.307,36.404c4.652,1.026,10.24,1.071,16.844-0.686
				l2.007-7.375L604.906,430.098z"/>
		</g>
		<g>
			<path style="fill:#D5EFE8;" d="M317.388,375.557c-0.03-3.308-0.265-6.836-0.743-10.608c-1.792-14.119-5.862-31.675-11.145-49.792
				l-4.984-0.242l3.613-4.383c-2.076-6.889-4.312-13.823-6.651-20.647l-13.007,1.651l9.871-10.56
				c-5.766-15.962-11.973-30.904-17.839-42.713l-6.34,0.805l3.958-5.463c-6.959-13.191-13.262-21.384-17.527-20.843
				c-5.992,0.76-11.574,19.221-15.619,44.393l2.873,2.032l-3.258,0.413c-1.24,8.041-2.323,16.71-3.217,25.666l6.319,3.797
				l-6.764,0.859c-1.154,12.616-1.926,25.674-2.221,38.253l4.966,3.099l-5.04,0.64c-0.106,6.618-0.075,13.075,0.108,19.233
				l7.675,1.74l-7.519,2.589c0.3,7.087,0.815,13.714,1.568,19.65c0.133,1.046,0.281,2.067,0.439,3.069l12.182,1.975l-11.06,3.865
				c3.044,13.374,8.557,22.261,14.733,28.149c17.439,16.624,44.632,13.172,57.365-7.281c3.573-5.739,6.274-13.194,7.047-22.862
				l-8.919-6.173L317.388,375.557z"/>
		</g>
		<g>
			<path style="fill:#D5EFE8;" d="M612.856,381.26c1.88-2.722,3.72-5.742,5.5-9.102c6.664-12.576,13.444-29.273,19.557-47.128
				l-3.936-3.067l5.478-1.503c2.269-6.827,4.434-13.784,6.449-20.711l-11.585-6.139l14.15-2.951
				c4.476-16.371,8.004-32.161,10.008-45.194l-5.647-2.992l6.381-2.188c1.905-14.791,1.469-25.12-2.33-27.133
				c-5.337-2.828-20.53,9.052-38.331,27.303l1.179,3.316l-2.902-1.538c-5.643,5.861-11.521,12.325-17.408,19.132l2.98,6.743
				l-6.025-3.193c-8.207,9.65-16.357,19.883-23.841,29.997l2.276,5.393l-4.489-2.379c-3.897,5.35-7.589,10.648-10.986,15.787
				l5.273,5.841l-7.639-2.212c-3.835,5.968-7.23,11.682-10.031,16.969c-0.494,0.932-0.961,1.851-1.408,2.762l8.823,8.628
				l-11.268-3.207c-5.211,12.688-5.821,23.128-4.161,31.498c4.687,23.632,28.907,36.467,51.094,27.076
				c6.226-2.635,12.727-7.175,18.925-14.634l-3.738-10.183L612.856,381.26z"/>
		</g>
		<path style="fill:#598077;" d="M210.596,279.207c0,0,33.516,118.796,25.443,120.501
			C227.967,401.412,210.596,279.207,210.596,279.207z"/>
		<path style="fill:#598077;" d="M230.682,265.521c0,0,23.051,121.627,10.583,122.702
			C228.798,389.299,230.682,265.521,230.682,265.521z"/>
		<path style="fill:#598077;" d="M248.539,238.509c0,0,7.59,123.559-4.914,123.06S248.539,238.509,248.539,238.509z"/>
		<path style="fill:#598077;" d="M644.871,375.976c0,0-34.189,49.793-43.275,39.952C592.51,406.086,644.871,375.976,644.871,375.976
			z"/>
		<path style="fill:#598077;" d="M203.489,288.408c0,0,41.211,116.351,33.267,118.58
			C228.812,409.216,203.489,288.408,203.489,288.408z"/>
		<path style="fill:#598077;" d="M226.66,406.413c0,0-17.905-54.93-26.711-62.021c-8.807-7.092-21.847,16.284-21.847,16.284
			s10.991-11.131,17.963-11.253C212.547,384.755,225.153,416.856,226.66,406.413z"/>
		<path style="fill:#598077;" d="M228.126,405.091c0,0,5.208,1.659,0.395-14.71c-4.813-16.369-22.807-64.492-32.895-66.464
			c-10.088-1.972-22.372,0.049-22.372,0.049s15.939,3.061,20.534,4.564C198.383,330.034,222.281,405.848,228.126,405.091z"/>
		<path style="fill:#598077;" d="M666.127,277.759c0,0-72.333,100.019-65.339,104.396
			C607.782,386.532,666.127,277.759,666.127,277.759z"/>
		<path style="fill:#598077;" d="M644.807,277.565c0,0-63.48,106.276-52.143,111.574C604,394.437,644.807,277.565,644.807,277.565z"
			/>
		<path style="fill:#598077;" d="M671.922,290.491c0,0-88.497,99.083-77.271,107.177
			C605.878,405.761,671.922,290.491,671.922,290.491z"/>
		<path style="fill:#598077;" d="M598.482,416.454c0,0,33.175-63.234,45.373-70.055c12.198-6.821,23.255,24.361,23.255,24.361
			s-11.092-15.836-19.562-17.426C620.158,392.981,598.16,429.492,598.482,416.454z"/>
		<path style="fill:#598077;" d="M606.256,329.546c0,0-5.378,0.976,1.5-14.639c6.879-15.614,30.913-61.023,41.17-61.681
			c10.258-0.658,22.18,2.926,22.18,2.926s-16.2,0.986-20.951,1.885C645.406,258.937,611.954,331.048,606.256,329.546z"/>
	</g>
	<g>
		<g>
			<g>
				<path style="fill:#EAC2A0;" d="M651.281,159.253H292.765c-4.397,0-8.204,3.05-9.165,7.34l-56.562,252.748h377.763
					l55.644-248.646C661.759,164.827,657.294,159.253,651.281,159.253z"/>
				<path style="fill:#F7E8D7;" d="M647.086,159.253H288.57c-4.397,0-8.205,3.05-9.165,7.34l-56.562,252.748h377.763l55.645-248.646
					C657.563,164.827,653.099,159.253,647.086,159.253z"/>
				<polygon style="fill:#79B2A2;" points="644.901,170.62 289.871,170.62 236.752,407.975 591.783,407.975 				"/>
				<polygon style="fill:#598077;" points="241.846,385.216 523.12,385.216 597.081,385.216 591.783,407.975 517.367,407.975 
					236.752,407.975 				"/>
				<path style="fill:#F0D8C1;" d="M461.545,416.704H86.731c-4.508,0-8.162,3.891-8.162,8.691l0,0c0,4.8,3.654,8.691,8.162,8.691
					h374.814c4.508,0,8.162-3.891,8.162-8.691l0,0C469.707,420.596,466.053,416.704,461.545,416.704z"/>
				<path style="fill:#EAC2A0;" d="M394.163,416.704c-4.8,0-8.691,3.891-8.691,8.691l0,0c0,4.8,3.891,8.691,8.691,8.691h202.918
					c7.44,0,8.31-3.704,8.31-8.69v-8.691H394.163z"/>
				<g>
					<path style="fill:#FF4435;" d="M597.684,428.49h-14.823c-1.677,0-3.037-1.36-3.037-3.038l0,0c0-1.677,1.36-3.037,3.037-3.037
						h14.823c1.677,0,3.037,1.36,3.037,3.037l0,0C600.721,427.13,599.361,428.49,597.684,428.49z"/>
				</g>
				<g>
					<path style="fill:#FF4435;" d="M568.714,427.94L568.714,427.94c-1.374,0-2.488-1.114-2.488-2.488l0,0
						c0-1.374,1.114-2.487,2.488-2.487l0,0c1.374,0,2.488,1.113,2.488,2.487l0,0C571.202,426.827,570.088,427.94,568.714,427.94z"/>
				</g>
				<g>
					<g>
						<g>
							<path style="fill:#FF4435;" d="M555.118,427.94L555.118,427.94c-1.374,0-2.488-1.114-2.488-2.488l0,0
								c0-1.374,1.114-2.487,2.488-2.487l0,0c1.374,0,2.488,1.113,2.488,2.487l0,0C557.605,426.827,556.492,427.94,555.118,427.94z"
								/>
						</g>
					</g>
				</g>
			</g>
			<g>
				<g>
					<g>
						<polygon style="fill:#D5EFE8;" points="618.582,212.664 306.478,212.664 272.751,377.783 584.855,377.783 						"/>
					</g>
				</g>
				<g>
					<g>
						<polygon style="fill:#9FCCBF;" points="622.704,192.484 310.6,192.484 306.478,212.664 618.582,212.664 						"/>
					</g>
				</g>
				<g>
					<g>
						<polygon style="fill:#D5EFE8;" points="612.656,206.738 300.552,206.738 266.825,371.857 578.929,371.857 						"/>
					</g>
				</g>
				<g>
					<g>
						<polygon style="fill:#9FCCBF;" points="616.778,186.557 304.674,186.557 300.552,206.738 612.656,206.738 						"/>
					</g>
				</g>
				<path style="fill:#FFFFFF;" d="M430.337,229.275l-16.231,79.464h105.093l16.231-79.464H430.337z M532.275,231.85l-7.326,35.869
					h-48.603l7.326-35.869H532.275z M432.439,231.85h48.603l-15.179,74.313H417.26L432.439,231.85z M517.096,306.163h-48.603
					l7.327-35.869h48.603L517.096,306.163z"/>
				<g>
					<polygon style="fill:#9FCCBF;" points="271.522,348.862 583.851,348.862 579.154,371.857 266.825,371.857 					"/>
				</g>
				<g>
					<g>
						<g>
							<g>
								<path style="fill:#79B2A2;" d="M323.294,301.401c-0.822-2.608-3.437-4.032-6.81-4.133l-0.392,5.602l-1.733-5.5
									c-1.82,0.222-3.776,0.776-5.747,1.702c-0.157,0.074-0.306,0.157-0.46,0.234l0.443,7.084l-2.565-5.88
									c-0.872,0.564-1.68,1.179-2.421,1.828l1.373,4.357l-2.599-3.192c-2.862,2.991-4.277,6.495-3.389,9.31
									c0.838,2.659,3.541,4.088,7.011,4.137l0.425-3.832l1.297,3.753c1.876-0.204,3.905-0.77,5.949-1.73
									c0.424-0.199,0.838-0.41,1.242-0.632l-1.664-6.687l3.245,5.719c0.948-0.631,1.828-1.316,2.615-2.046l-2.171-5.127
									l3.569,3.669C322.959,307.203,324.116,304.008,323.294,301.401z"/>
							</g>
						</g>
						<g>
							<g>
								<path style="fill:#9FCCBF;" d="M318.851,276.356c-2.869,1.347-4.876,4.238-5.666,7.614l3.803,0.154l-4.129,1.939
									c-0.14,1.765,0.037,3.598,0.596,5.37c0.044,0.141,0.1,0.272,0.149,0.41l7.431-1.88l-6.614,3.746
									c0.407,0.753,0.88,1.431,1.403,2.037l4.793-2.251l-3.836,3.234c2.518,2.239,5.861,2.934,8.958,1.48
									c2.926-1.374,4.956-4.353,5.712-7.815l-5.239,0.48l5.508-2.176c0.169-1.825-0.004-3.728-0.584-5.566
									c-0.12-0.381-0.255-0.75-0.403-1.107l-7.267,3.014l6.585-4.389c-0.462-0.815-0.992-1.551-1.589-2.185l-5.753,3.201
									l4.527-4.295C324.794,275.511,321.719,275.009,318.851,276.356z"/>
							</g>
						</g>
						<g>
							<g>
								<path style="fill:#9FCCBF;" d="M360.078,314.208c0.907-1.743,0.645-3.648-0.49-5.186l-2.704,2.795l1.914-3.676
									c-0.739-0.683-1.677-1.25-2.792-1.627c-0.089-0.03-0.179-0.051-0.268-0.078l-3.092,3.949l1.797-4.244
									c-0.564-0.085-1.128-0.114-1.686-0.096l-1.516,2.912l0.553-2.835c-2.373,0.326-4.474,1.56-5.453,3.441
									c-0.925,1.778-0.634,3.724,0.558,5.277l2.086-2.018l-1.447,2.733c0.75,0.717,1.72,1.31,2.876,1.701
									c0.24,0.081,0.482,0.151,0.725,0.211l2.482-4.275l-1.485,4.458c0.621,0.083,1.243,0.107,1.853,0.066l1.59-3.671
									l-0.432,3.514C357.301,317.134,359.171,315.951,360.078,314.208z"/>
							</g>
						</g>
						<g>
							<g>
								<path style="fill:#79B2A2;" d="M361.278,296.31c0.314,2.802-1.359,5.864-4.193,8.335l-2.511-4.493l0.662,5.909
									c-1.636,1.098-3.517,2.009-5.555,2.614c-0.162,0.048-0.321,0.083-0.483,0.126l-2.376-6.346l0.102,6.821
									c-0.962,0.137-1.888,0.184-2.772,0.155l-0.524-4.681l-0.973,4.556c-3.6-0.523-6.166-2.507-6.505-5.531
									c-0.32-2.857,1.426-5.985,4.362-8.481l3.788,6.06l-2.291-7.21c1.677-1.153,3.625-2.106,5.739-2.734
									c0.439-0.13,0.873-0.243,1.304-0.34l1.182,6.871l0.54-7.164c1.053-0.133,2.069-0.172,3.022-0.106l0.145,5.9l1.613-5.648
									C358.736,291.607,360.964,293.51,361.278,296.31z"/>
							</g>
						</g>
						<g>
							<g>
								<path style="fill:#9FCCBF;" d="M354.947,271.507c2.833,1.646,3.843,5.178,3.123,9.303l-6.621-0.914l5.975,3.472
									c-0.711,2.157-1.841,4.396-3.409,6.562c-0.125,0.172-0.259,0.333-0.387,0.501l-8.141-2.297l6.212,4.577
									c-0.873,0.92-1.79,1.749-2.731,2.489l-4.733-2.75l3.073,3.952c-4.195,2.736-8.626,3.585-11.685,1.808
									c-2.889-1.679-3.883-5.318-3.078-9.549l5.561,0.529l-5.042-2.602c0.704-2.23,1.866-4.555,3.492-6.801
									c0.337-0.466,0.686-0.917,1.045-1.353l7.375,3.683l-5.855-5.363c0.971-0.996,1.987-1.896,3.032-2.67l5.432,3.911
									l-3.387-5.248C348.106,270.475,352.115,269.861,354.947,271.507z"/>
							</g>
						</g>
						<g>
							<path style="fill:#79B2A2;" d="M328.641,327.966l-1.267-0.228c0.03-0.168,2.991-16.869,1.061-21.637
								c-1.774-4.382-5.929-3.011-6.106-2.951l-0.418-1.219c0.055-0.017,5.492-1.812,7.717,3.686
								C331.696,310.729,328.767,327.264,328.641,327.966z"/>
						</g>
						<g>
							<path style="fill:#9FCCBF;" d="M330.754,325.41l-1.283-0.117c0.005-0.056,0.529-5.749,2.017-15.229
								c1.51-9.618,6.719-16.583,6.941-16.875l1.026,0.777c-0.052,0.069-5.237,7.011-6.694,16.297
								C331.28,319.697,330.759,325.353,330.754,325.41z"/>
						</g>
						<g>
							<path style="fill:#9FCCBF;" d="M325.69,325.419l-1.28-0.136c2.108-19.823,0.016-28.38-0.006-28.464l1.247-0.319
								C325.742,296.851,327.829,305.318,325.69,325.419z"/>
						</g>
						<g>
							<path style="fill:#79B2A2;" d="M327.341,325.48l-1.261-0.258c3.664-17.941,11.654-23.152,11.992-23.365l0.688,1.089
								C338.682,302.996,330.883,308.141,327.341,325.48z"/>
						</g>
						<g>
							<path style="fill:#9FCCBF;" d="M332.06,325.48l-1.261-0.258c1.527-7.477,4.482-12.488,8.782-14.896
								c4.848-2.713,9.561-1.053,9.761-0.98l-0.439,1.21c-0.042-0.016-4.383-1.528-8.711,0.904
								C336.242,313.681,333.507,318.398,332.06,325.48z"/>
						</g>
					</g>
					<g>
						<g>
							<path style="fill:#FFFFFF;" d="M346.381,323.362h-33.904l-0.176,0.861c0,0-3.066,17.712,4.122,24.638h15.495
								C342.066,341.777,346.381,323.362,346.381,323.362z"/>
						</g>
					</g>
				</g>
				<g>
					<polygon style="fill:#79B2A2;" points="325.044,366.389 473.986,366.389 468.819,356.265 334.952,356.265 					"/>
				</g>
				<g>
					<g>
						<g>
							<g>
								<path style="fill:#598077;" d="M406.95,238.124c0,0-5.007,0-8.389,4.774c-3.382,4.775-4.505,9.701-4.505,9.701h19.719
									C413.775,252.599,417.819,238.124,406.95,238.124z"/>
							</g>
						</g>
					</g>
					<g>
						<path style="fill:#F19183;" d="M405.58,258.324l17.106-3.779l18.084-9.279l1.886,3.069c0,0-11.166,8.504-16.536,11.543
							c-8.414,4.762-21.419,6.914-21.419,6.914L405.58,258.324z"/>
					</g>
					<g>
						<path style="fill:#F19183;" d="M397.364,259.378L384.186,254l-2.884-14.078l-1.876,0.577c0,0-2.837,13.571,0.41,17.811
							c4.857,6.341,14.966,10.358,17.582,8.843c1.692-0.98,1.874-2.367,2.082-3.844C399.75,261.536,398.898,260.005,397.364,259.378
							z"/>
					</g>
					<g>
						<g>
							<g>
								<path style="fill:#FDBD97;" d="M449.645,247.463l-3.27,2.91l2.453,22.863c0,0-10.721,2.058-20.794,8.297
									c0,0-8.722,5.523-5.762,15.612c5.931-1.696,14.572-4.576,21.163-8.471c11.098-6.559,13.064-9.919,13.064-9.919
									C464.245,270.597,449.645,247.463,449.645,247.463z"/>
							</g>
							<g>
								<path style="fill:#FDBD97;" d="M406.648,293.728c-0.031,3.051-0.206,22.751,0.315,31.741
									c0.566,9.759-1.459,34.555-1.459,34.555h3.84c0,0,9.061-23.996,7.091-34.715c2.463-10.381,4.735-22.22,5.837-28.163
									C422.272,297.146,413.098,299.101,406.648,293.728z"/>
							</g>
						</g>
					</g>
					<g>
						<g>
							<path style="fill:#F19183;" d="M403.411,258.279c-8.159,0-10.103,3.185-11.589,8.959c-1.088,4.226-0.949,8.818,3.716,15.185
								c6.781-2.96,12.142-6.723,15.712-9.641C408.273,264.396,411.438,258.279,403.411,258.279z"/>
						</g>
						<path style="fill:#FF4435;" d="M428.034,281.534c-3.489-1.997-6.531-2.343-9.147-1.732c-0.103-0.038-0.204-0.073-0.312-0.115
							c-4.09-1.606-6.87-5.077-7.835-9.399l-1.013-4.536c0,0-2.742-1.967-3.549-7.56c-0.015,0.003-0.402,0-0.402,0
							s-1.137,8.046-7.872,10.549c-3.219-4.427-0.137-9.68-0.137-9.68l-0.601,0.238c0,0-3.529,4.264-5.537,7.495
							c-2.007,3.231-4.683,8.528,5.636,17.821c0.002-0.001,0.004-0.003,0.006-0.004c2.262,2.686,5.281,5.671,9.291,9.054
							c0.031-0.023,0.057-0.047,0.088-0.069c-0.001,0.046-0.001,0.076-0.001,0.133c6.449,5.373,15.624,3.418,15.624,3.418
							C419.311,287.056,428.034,281.534,428.034,281.534z"/>
					</g>
					<g>
						<path style="fill:#F19183;" d="M405.653,258.792c-2.094,1.159-4.558,1.386-7.394,0.681l1.404-6.874h7.254L405.653,258.792z"/>
					</g>
					<g>
						<path style="fill:#FDBD97;" d="M395.213,361.685c0.898-0.377,10.477-4.032,10.477-4.032l4.506,0.005
							c0,0,0.182,5.253-1.724,5.253h-12.646C394.496,362.911,394.315,362.062,395.213,361.685z"/>
					</g>
					<g>
						<path style="fill:#F19183;" d="M448.548,244.294c-0.126-0.297-0.768-0.077-0.768-0.077s0.585-0.62,0.425-1.021
							c-0.16-0.4-1.022,0.041-1.022,0.041s0.584-0.755,0.39-1.17c-0.194-0.415-1.017,0.101-1.017,0.101s0.67-0.627,0.21-1.091
							c-0.118-0.119-0.319-0.085-0.555,0.029c-0.097-0.232-0.47-0.531-1.931,0.089c-1.92,0.814-2.807,3.005-2.807,3.005l0.001-0.001
							c-0.63,0.944-1.124,1.716-1.124,1.716l1.292,2.946c0,0,2.852-1.442,4.753-2.644
							C448.297,245.014,448.674,244.591,448.548,244.294z"/>
					</g>
					<g>
						<g>
							<path style="fill:#FDBD97;" d="M444.193,239.719c0.498,0.647,5.452,7.744,5.452,7.744l-2.937,6.017
								c0,0-1.555,1.174-1.827-0.622l-1.804-11.914C442.887,239.691,443.695,239.072,444.193,239.719z"/>
						</g>
					</g>
					<g>
						<path style="fill:#F19183;" d="M409.394,252.144c4.571-4.221,4.118-10.945-0.78-12.848c-0.039-0.015-0.077-0.03-0.116-0.044
							c-3.912-1.471-8.997,1.485-10.294,7.838s-1.057,8.579,3.223,8.579C403.574,255.669,407.169,254.199,409.394,252.144z"/>
					</g>
					<g>
						<path style="fill:#F19183;" d="M379.426,240.499c0,0,0.248-3.133,1.334-4.994c1.086-1.861,3.81-3.89,4.076-3.934
							c0.266-0.044,0.116,0.726-2.452,3.228c-0.779,1.283-0.386,2.177-0.386,2.177s1.488-2.37,1.833-2.37
							c0.503,0-1.36,4.457-3.064,5.892"/>
					</g>
					<g>
						<g>
							<g>
								<path style="fill:#598077;" d="M404.078,238.88c0,0,0.591,6.23,5.881,7.317c0.685,3.105-2.822,6.401-2.822,6.401h4.58
									C411.718,252.599,418.176,236.376,404.078,238.88z"/>
							</g>
						</g>
					</g>
					<g>
						<path style="fill:#F19183;" d="M446.044,241.194c0,0-2.319,1.627-2.047,2.314c0.272,0.688,2.47-1.15,2.47-1.15
							L446.044,241.194z"/>
					</g>
					<g>
						<path style="fill:#F19183;" d="M446.579,242.191c0,0-2.319,1.627-2.047,2.314c0.272,0.688,2.426-1.272,2.426-1.272
							L446.579,242.191z"/>
					</g>
					<g>
						<path style="fill:#F19183;" d="M447.013,243.206c0,0-2.319,1.627-2.047,2.314c0.272,0.688,2.426-1.272,2.426-1.272
							L447.013,243.206z"/>
					</g>
					<g>
						<path style="fill:#F19183;" d="M447.656,244.035c0,0-2.177,1.527-1.922,2.173c0.255,0.646,2.268-1.095,2.268-1.095
							L447.656,244.035z"/>
					</g>
				</g>
				<g>
					<polygon style="fill:#FFFFFF;" points="520.259,206.738 612.656,206.738 578.929,371.857 486.531,371.857 					"/>
				</g>
				<g>
					<path style="fill:#D5EFE8;" d="M594.727,219.265H533.07c-1.867,0-3.69,1.514-4.071,3.381l-2.724,13.336l-1.118,5.472
						l6.589-5.472h59.566c1.867,0,3.69-1.514,4.071-3.381l2.033-9.955C597.799,220.779,596.594,219.265,594.727,219.265z"/>
				</g>
				<g>
					<path style="fill:#D5EFE8;" d="M574.644,317.587h-61.657c-1.867,0-3.69,1.514-4.071,3.381l-2.724,13.336l-1.118,5.472
						l6.59-5.472h59.566c1.867,0,3.69-1.514,4.071-3.381l2.033-9.955C577.715,319.101,576.511,317.587,574.644,317.587z"/>
				</g>
				<g>
					<path style="fill:#9FCCBF;" d="M518.868,288.792h61.657c1.867,0,3.072,1.514,2.69,3.381l-2.724,13.336l-1.118,5.472
						l-4.354-5.472h-59.566c-1.867,0-3.071-1.514-2.69-3.381l2.033-9.955C515.178,290.305,517.001,288.792,518.868,288.792z"/>
				</g>
				<g>
					<path style="fill:#D5EFE8;" d="M589.108,246.777H527.45c-1.867,0-3.69,1.514-4.071,3.381l-5.686,27.84l-1.118,5.472l6.59-5.472
						h59.566c1.867,0,3.69-1.514,4.071-3.381l4.996-24.459C592.179,248.29,590.975,246.777,589.108,246.777z"/>
				</g>
				<g>
					<g>
						<path style="fill:#D5EFE8;" d="M580.17,196.648c-0.389,1.905,0.84,3.45,2.745,3.45c1.905,0,3.765-1.544,4.154-3.45
							c0.389-1.905-0.84-3.45-2.745-3.45C582.419,193.198,580.559,194.742,580.17,196.648z"/>
					</g>
					<g>
						<path style="fill:#D5EFE8;" d="M600.732,196.648c-0.389,1.905,0.84,3.45,2.745,3.45s3.765-1.544,4.154-3.45
							c0.389-1.905-0.84-3.45-2.745-3.45S601.121,194.742,600.732,196.648z"/>
					</g>
					<g>
						<path style="fill:#D5EFE8;" d="M590.451,196.648c-0.389,1.905,0.84,3.45,2.745,3.45s3.765-1.544,4.154-3.45
							c0.389-1.905-0.84-3.45-2.745-3.45C592.7,193.198,590.84,194.742,590.451,196.648z"/>
					</g>
				</g>
				
					<polygon style="fill:none;stroke:#2E443E;stroke-width:1.2877;stroke-linecap:round;stroke-linejoin:round;stroke-miterlimit:10;" points="
					616.778,186.557 578.929,371.857 266.825,371.857 304.674,186.557 				"/>
				
					<line style="fill:none;stroke:#2E443E;stroke-width:1.2877;stroke-linecap:round;stroke-linejoin:round;stroke-miterlimit:10;" x1="486.531" y1="371.857" x2="520.259" y2="206.738"/>
				
					<path style="fill:none;stroke:#2E443E;stroke-width:1.2877;stroke-linecap:round;stroke-linejoin:round;stroke-miterlimit:10;" d="
					M404.078,206.738"/>
			</g>
			<g>
				
					<line style="fill:none;stroke:#2E443E;stroke-width:1.2877;stroke-linecap:round;stroke-linejoin:round;stroke-miterlimit:10;" x1="535.43" y1="225.013" x2="588.224" y2="225.013"/>
				
					<line style="fill:none;stroke:#2E443E;stroke-width:1.2877;stroke-linecap:round;stroke-linejoin:round;stroke-miterlimit:10;" x1="568.373" y1="229.614" x2="534.677" y2="229.614"/>
			</g>
			<g>
				
					<line style="fill:none;stroke:#2E443E;stroke-width:1.2877;stroke-linecap:round;stroke-linejoin:round;stroke-miterlimit:10;" x1="528.201" y1="252.063" x2="580.995" y2="252.063"/>
				
					<line style="fill:none;stroke:#2E443E;stroke-width:1.2877;stroke-linecap:round;stroke-linejoin:round;stroke-miterlimit:10;" x1="561.145" y1="256.663" x2="527.448" y2="256.663"/>
			</g>
			<g>
				
					<line style="fill:none;stroke:#2E443E;stroke-width:1.2877;stroke-linecap:round;stroke-linejoin:round;stroke-miterlimit:10;" x1="574.761" y1="294.845" x2="521.967" y2="294.845"/>
				
					<line style="fill:none;stroke:#2E443E;stroke-width:1.2877;stroke-linecap:round;stroke-linejoin:round;stroke-miterlimit:10;" x1="539.517" y1="299.446" x2="573.214" y2="299.446"/>
				
					<line style="fill:none;stroke:#2E443E;stroke-width:1.2877;stroke-linecap:round;stroke-linejoin:round;stroke-miterlimit:10;" x1="567.206" y1="323.087" x2="514.411" y2="323.087"/>
				
					<line style="fill:none;stroke:#2E443E;stroke-width:1.2877;stroke-linecap:round;stroke-linejoin:round;stroke-miterlimit:10;" x1="525.756" y1="327.936" x2="513.622" y2="327.936"/>
			</g>
			<g>
				
					<line style="fill:none;stroke:#2E443E;stroke-width:1.2877;stroke-linecap:round;stroke-linejoin:round;stroke-miterlimit:10;" x1="526.51" y1="261.648" x2="567.381" y2="261.648"/>
				
					<line style="fill:none;stroke:#2E443E;stroke-width:1.2877;stroke-linecap:round;stroke-linejoin:round;stroke-miterlimit:10;" x1="559.453" y1="266.249" x2="525.756" y2="266.249"/>
			</g>
		</g>
		<g>
			<g>
				<path style="fill:#FF4435;" d="M161.607,332.07c-26.902-46.106,6.044-94.829,6.044-94.829l11.62,5.273
					c-0.982-12.934-7.904-40.733-50.62-25.382c-23.511-16.672-51.037-22.172-51.037-22.172l19.034-61.093l-7.15-7.777
					c0,0-51.639,61.817-35.395,83.618c0,0,3.98,13.476,30.056,31.003c13.226,8.89,30.845,15.796,45.004,20.447
					c1.172,16.498,3.141,46.493,4.013,72.946c-11.114,28.641,2.575,92.763,2.575,92.763h10.259c0,0,8.122-66.259,14.962-92.336
					C161.18,333.743,161.392,332.92,161.607,332.07L161.607,332.07z"/>
				<path style="fill:#FF6861;" d="M161.607,332.07L161.607,332.07c6.894-27.187,17.747-83.461,17.747-83.461h0l0,0
					c0,0,0.193-2.461-0.083-6.094l-11.62-5.273C167.651,237.242,134.705,285.964,161.607,332.07z"/>
			</g>
			<path style="fill:#F19183;" d="M201.319,155.113l-43.647-10.099l-43.259-24.794l-6.716,8.201c0,0,25.196,22.723,37.887,30.846
				c19.885,12.726,53.46,18.476,53.46,18.476L201.319,155.113z"/>
			<g>
				<g>
					<path style="fill:#FDBD97;" d="M233.217,178.931c-0.819-15.427-4.275-23.939-26.076-23.939
						c-21.801,0-16.118,16.87-29.451,39.839c-5.749,9.905-17.494,15.705-24.279,17.89c3.803,9.279,11.44,24.243,25.996,36.825
						C227.164,215.178,234.12,195.953,233.217,178.931z"/>
				</g>
			</g>
			<path style="fill:#F19183;" d="M200.868,156.364c4.962,3.098,11.424,3.704,19.385,1.82l0-18.368h-19.385V156.364z"/>
			<path style="fill:#F19183;" d="M222.697,157.931l38.15-14.373l15.389-37.618l8.766,1.989c0,0-3.896,35.819-14.887,47.147
				c-16.44,16.943-45.645,27.679-51.809,23.63c-3.986-2.619-3.715-6.324-3.465-10.272
				C215.143,163.697,218.257,159.604,222.697,157.931z"/>
			<path style="fill:#F19183;" d="M172.606,431.307c-2.194-1.008-25.794-10.774-25.794-10.774l-12.044,0.013
				c0,0-3.354,14.037,1.74,14.037h33.791C173.852,434.583,174.8,432.314,172.606,431.307z"/>
			<path style="fill:#F19183;" d="M108.293,105.399c-1.684,1.729-18.795,20.692-18.795,20.692l4.564,16.079
				c0,0,3.514,3.138,5.221-1.662l11.325-31.837C111.798,105.323,109.978,103.67,108.293,105.399z"/>
			<path style="fill:#F19183;" d="M276.607,106.36c0,0-5.294-13.06-3.288-13.725c2.006-0.664,2.064,6.636,3.547,5.782
				c0.821-0.473,0.096-15.421,1.921-15.637c1.825-0.216,0.373,7.895,1.729,8.342c1.15,0.379,1.611-9.173,3.338-9.038
				c1.726,0.134-1.418,9.338,0.165,9.719c1.583,0.381,2.428-9.228,3.921-8.624c1.493,0.605-1.382,9.218-0.539,9.603
				c0.843,0.385,2.328-7.591,3.865-6.881c1.537,0.709-6.263,22.028-6.263,22.028L276.607,106.36z"/>
			<path style="fill:#F19183;" d="M98.863,122.762c-4.424-3.213-5.203-4.346-4.703-5.139c0.5-0.794,2.095-0.205,2.095-0.205
				s-1.224-1.658-0.579-2.727c0.645-1.069,2.707,0.11,2.707,0.11s-1.148-2.019-0.403-3.126c0.744-1.108,2.663,0.269,2.663,0.269
				s-1.448-1.674,0.034-2.917c1.482-1.243,5.021,3.658,5.817,3.692c-0.621-3.7,0.754-3.415,2.076-2.458
				c1.212,0.877,2.136,2.091,2.796,3.433c1.893,3.845,3.814,8.263,3.814,8.263l-5.059,7.871
				C110.121,129.827,103.287,125.974,98.863,122.762z"/>
			<path style="fill:#F19183;" d="M194.501,138.6c-9.911-11.28-5.03-29.248,9.098-34.332c0.111-0.04,0.223-0.08,0.335-0.119
				c11.258-3.931,23.23,3.969,23.23,20.945c0,16.976-3.753,21.941-15.189,21.941C206.233,147.035,199.324,144.09,194.501,138.6z"/>
			<path style="fill:#598077;" d="M192.451,142.06c0,0,6.673,4.571,14.963,3.155c8.29-1.415,10.512-4.651,12.839-11.728
				c2.327-7.077,10.01-7.886,10.819-16.379c0.809-8.493-11.121-19.007-24.062-19.007c-12.941,0-20.423,11.064-22.445,23.225
				C182.542,133.488,192.451,142.06,192.451,142.06z"/>
			<path style="fill:#598077;" d="M199.333,140.862c0,0,8.328,2.09,3.495,12.744c-4.833,10.655,6.721,15.267,2.361,28.209
				c-2.749,8.161-15.522,16.99-33.396,6.079c-17.874-10.91-16.215-26.613-8.865-32.902c7.35-6.289,16.991-2.711,21.315-7.038
				C188.569,143.626,191.876,137.3,199.333,140.862z"/>
			
				<path style="fill:none;stroke:#2E443E;stroke-width:1.2877;stroke-linecap:round;stroke-linejoin:round;stroke-miterlimit:10;" d="
				M167.279,237.809c0,0-32.833,48.155-5.672,94.261"/>
			
				<path style="fill:none;stroke:#2E443E;stroke-width:1.2877;stroke-linecap:round;stroke-linejoin:round;stroke-miterlimit:10;" d="
				M129.335,237.242c0,0-1.532,11.959-0.173,23.918"/>
			
				<path style="fill:none;stroke:#2E443E;stroke-width:1.2877;stroke-linecap:round;stroke-linejoin:round;stroke-miterlimit:10;" d="
				M155.593,211.947c0,0,8.403,19.576,26.355,35.334"/>
			
				<path style="fill:none;stroke:#2E443E;stroke-width:1.2877;stroke-linecap:round;stroke-linejoin:round;stroke-miterlimit:10;" d="
				M191.342,140.971c0,0,6.371-5.364,12.255,3.37"/>
		</g>
		
			<line style="fill:none;stroke:#598077;stroke-width:2.5754;stroke-linecap:round;stroke-linejoin:round;stroke-miterlimit:10;" x1="50.941" y1="434.086" x2="660.676" y2="434.086"/>
	</g>
</g>
</svg>
